<?xml version="1.0" encoding="UTF-8"?>
<svg id="Layer_1" data-name="Layer 1" xmlns="http://www.w3.org/2000/svg" viewBox="0 0 112 20">
  <defs>
    <style>
      .cls-1 {
        fill: #7f4e67;
      }
    </style>
  </defs>
  <path class="cls-1" d="M20,7.24c0-.45-.36-.81-.81-.81h-6.33L10.76.54c-.15-.42-.61-.64-1.03-.49-.23.08-.41.26-.49.49l-2.09,5.89H.81C.36,6.43,0,6.79,0,7.24c0,.24.11.47.29.62l4.71,3.92-2.11,7.19c-.12.42.12.87.54.99.24.07.51.02.71-.13l5.86-4.48,5.86,4.48c.35.27.85.2,1.12-.15.15-.2.2-.46.13-.71l-2.11-7.19,4.71-3.92c.18-.15.29-.38.29-.62ZM43,7.24c0-.45-.36-.81-.81-.81h-6.33l-2.09-5.89c-.15-.42-.61-.64-1.03-.49-.23.08-.41.26-.49.49l-2.09,5.89h-6.33c-.45,0-.81.36-.81.81,0,.24.11.47.29.62l4.71,3.92-2.11,7.19c-.12.42.12.87.54.99.24.07.51.02.71-.13l5.86-4.48,5.86,4.48c.35.27.85.2,1.12-.15.15-.2.2-.46.13-.71l-2.11-7.19,4.71-3.92c.18-.15.29-.38.29-.62ZM66,7.24c0-.45-.36-.81-.81-.81h-6.33l-2.09-5.89c-.15-.42-.61-.64-1.03-.49-.23.08-.41.26-.49.49l-2.09,5.89h-6.33c-.45,0-.81.36-.81.81,0,.24.11.47.29.62l4.71,3.92-2.11,7.19c-.12.42.12.87.54.99.24.07.51.02.71-.13l5.86-4.48,5.86,4.48c.35.27.85.2,1.12-.15.15-.2.2-.46.13-.71l-2.11-7.19,4.71-3.92c.18-.15.29-.38.29-.62ZM89,7.24c0-.45-.36-.81-.81-.81h-6.33l-2.09-5.89c-.15-.42-.61-.64-1.03-.49-.23.08-.41.26-.49.49l-2.09,5.89h-6.33c-.45,0-.81.36-.81.81,0,.24.11.47.29.62l4.71,3.92-2.11,7.19c-.12.42.12.87.54.99.24.07.51.02.71-.13l5.86-4.48,5.86,4.48c.35.27.85.2,1.12-.15.15-.2.2-.46.13-.71l-2.11-7.19,4.71-3.92c.18-.15.29-.38.29-.62ZM112,7.24c0-.45-.36-.81-.81-.81h-6.33l-2.09-5.89c-.15-.42-.61-.64-1.03-.49-.23.08-.41.26-.49.49l-2.09,5.89h-6.33c-.45,0-.81.36-.81.81,0,.24.11.47.29.62l4.71,3.92-2.11,7.19c-.12.42.12.87.54.99.24.07.51.02.71-.13l5.86-4.48,5.86,4.48c.35.27.85.2,1.12-.15.15-.2.2-.47.13-.71l-2.11-7.19,4.71-3.92c.18-.15.29-.38.29-.62Z"/>
</svg>