<!DOCTYPE svg PUBLIC "-//W3C//DTD SVG 1.1//EN" "http://www.w3.org/Graphics/SVG/1.1/DTD/svg11.dtd">
<!-- Uploaded to: SVG Repo, www.svgrepo.com, Transformed by: SVG Repo Mixer Tools -->
<svg fill="#7F4E67" height="800px" width="800px" version="1.1" id="Layer_1" xmlns="http://www.w3.org/2000/svg" xmlns:xlink="http://www.w3.org/1999/xlink" viewBox="0 0 1792 1792" xml:space="preserve">
<g id="SVGRepo_bgCarrier" stroke-width="0"/>
<g id="SVGRepo_tracerCarrier" stroke-linecap="round" stroke-linejoin="round"/>
<g id="SVGRepo_iconCarrier"> <path d="M1696,895.8l-546.6,371.5v-259.8c-5.7-13.5-13.2-25.6-22.4-30.6c-20.3-10.3-88.3-6.4-214.9,75.1 c-158.7,102.1-315.7,136.7-465.8,102.1C220.6,1102.6,101,910.4,96,902.2l203.9-124.6c0.7,1.1,73.3,114.9,199.6,144.1 c85.1,19.6,180.4-4.3,282.9-70.1c121.4-78.3,229.5-117.4,322.8-117.4c15.3,0,29.9,1.4,44.1,3.6V524.6L1696,895.8z"/> </g>
</svg>